HIERARCHY
ROOT Hips
{
	OFFSET 0.000000 0.000000 0.000000
	CHANNELS 6 Xposition Yposition Zposition Xrotation Yrotation Zrotation
	JOINT Spine
	{
		OFFSET 0.000000 0.042231 0.063346
		CHANNELS 3 Xrotation Yrotation Zrotation
		JOINT Spine1
		{
			OFFSET 0.000000 0.014667 0.083179
			CHANNELS 3 Xrotation Yrotation Zrotation
			JOINT Spine2
			{
				OFFSET 0.000000 0.007361 0.084141
				CHANNELS 3 Xrotation Yrotation Zrotation
				JOINT Spine3
				{
					OFFSET 0.000000 0.000000 0.084462
					CHANNELS 3 Xrotation Yrotation Zrotation
					JOINT Neck
					{
						OFFSET 0.000000 -0.031673 0.221713
						CHANNELS 3 Xrotation Yrotation Zrotation
						JOINT Head
						{
							OFFSET 0.000000 -0.020167 0.114371
							CHANNELS 3 Xrotation Yrotation Zrotation
							End Site
							{
								OFFSET 0.000000 0.000000 0.000000
							}
						}
					}
					JOINT RightShoulder
					{
						OFFSET -0.029161 -0.048602 0.157471
						CHANNELS 3 Xrotation Yrotation Zrotation
						JOINT RightArm
						{
							OFFSET -0.144834 0.000000 0.000000
							CHANNELS 3 Xrotation Yrotation Zrotation
							JOINT RightForeArm
							{
								OFFSET -0.274949 0.000000 0.000000
								CHANNELS 3 Xrotation Yrotation Zrotation
								JOINT RightHand
								{
									OFFSET -0.254725 0.000000 0.000000
									CHANNELS 3 Xrotation Yrotation Zrotation
									JOINT RightHandEnd
									{
										OFFSET -0.068160 0.000000 0.000000
										CHANNELS 3 Xrotation Yrotation Zrotation
										End Site
										{
											OFFSET 0.000000 0.000000 0.000000
										}
									}
									JOINT RightHandThumb1
									{
										OFFSET -0.027264 -0.045440 -0.018176
										CHANNELS 3 Xrotation Yrotation Zrotation
										End Site
										{
											OFFSET 0.000000 0.000000 0.000000
										}
									}
								}
							}
						}
					}
					JOINT LeftShoulder
					{
						OFFSET 0.029161 -0.048602 0.157471
						CHANNELS 3 Xrotation Yrotation Zrotation
						JOINT LeftArm
						{
							OFFSET 0.144834 0.000000 0.000000
							CHANNELS 3 Xrotation Yrotation Zrotation
							JOINT LeftForeArm
							{
								OFFSET 0.274949 0.000000 0.000000
								CHANNELS 3 Xrotation Yrotation Zrotation
								JOINT LeftHand
								{
									OFFSET 0.254725 0.000000 0.000000
									CHANNELS 3 Xrotation Yrotation Zrotation
									JOINT LeftHandEnd
									{
										OFFSET 0.068160 0.000000 0.000000
										CHANNELS 3 Xrotation Yrotation Zrotation
										End Site
										{
											OFFSET 0.000000 0.000000 0.000000
										}
									}
									JOINT LeftHandThumb1
									{
										OFFSET 0.027264 -0.045440 -0.018176
										CHANNELS 3 Xrotation Yrotation Zrotation
										End Site
										{
											OFFSET 0.000000 0.000000 0.000000
										}
									}
								}
							}
						}
					}
				}
			}
		}
	}
	JOINT RightUpLeg
	{
		OFFSET -0.086512 0.000000 -0.025273
		CHANNELS 3 Xrotation Yrotation Zrotation
		JOINT RightLeg
		{
			OFFSET 0.000000 0.000000 -0.433119
			CHANNELS 3 Xrotation Yrotation Zrotation
			JOINT RightFoot
			{
				OFFSET 0.000000 0.000000 -0.404688
				CHANNELS 3 Xrotation Yrotation Zrotation
				JOINT RightToeBase
				{
					OFFSET 0.000000 -0.126496 -0.046041
					CHANNELS 3 Xrotation Yrotation Zrotation
					End Site
					{
						OFFSET 0.000000 0.000000 0.000000
					}
				}
			}
		}
	}
	JOINT LeftUpLeg
	{
		OFFSET 0.086512 0.000000 -0.025273
		CHANNELS 3 Xrotation Yrotation Zrotation
		JOINT LeftLeg
		{
			OFFSET 0.000000 0.000000 -0.433119
			CHANNELS 3 Xrotation Yrotation Zrotation
			JOINT LeftFoot
			{
				OFFSET 0.000000 0.000000 -0.404688
				CHANNELS 3 Xrotation Yrotation Zrotation
				JOINT LeftToeBase
				{
					OFFSET 0.000000 -0.126496 -0.046041
					CHANNELS 3 Xrotation Yrotation Zrotation
					End Site
					{
						OFFSET 0.000000 0.000000 0.000000
					}
				}
			}
		}
	}
}
MOTION
Frames: 9
Frame Time: 0.033333
0.270416 -2.752999 0.891860 -3.318400 -0.461800 -179.230200 -2.982900 -0.027300 -0.183500 -1.531600 -0.387300 -0.005200 -1.270800 -0.694200 1.137200 0.329600 -0.186300 0.203400 6.181800 1.616000 3.713700 -2.111700 4.072500 3.781800 1.974000 20.127300 -2.773900 -25.975000 -17.890600 -11.450900 0.000000 0.000000 24.949500 -9.001700 23.853600 2.186900 0.000000 0.000000 0.000000 0.000000 0.000000 0.000000 5.162400 -12.538000 3.264600 -8.281600 16.880600 -8.077500 0.000000 0.000000 -14.700200 -9.102200 -26.468900 -0.355400 0.000000 0.000000 0.000000 0.000000 0.000000 0.000000 -3.642600 -1.663300 -36.828100 1.926100 0.000000 0.000000 -8.990500 -1.695600 -8.069100 4.030700 0.000000 0.000000 -0.999600 0.828600 29.594700 -1.290100 0.000000 0.000000 -8.135800 4.723400 7.975300 5.486700 0.000000 0.000000 
0.270340 -2.752961 0.891868 -3.309200 -0.468300 -179.186800 -2.979600 -0.037800 -0.183200 -1.529200 -0.394000 -0.003900 -1.264400 -0.706400 1.162300 0.337200 -0.186300 0.211800 6.230500 1.617900 3.721100 -2.136300 4.092300 3.774400 2.005100 20.218200 -2.803600 -25.982000 -17.984000 -11.523900 0.000000 0.000000 24.999500 -8.995300 23.878600 2.184700 0.000000 0.000000 0.000000 0.000000 0.000000 0.000000 5.131700 -12.484100 3.260800 -8.360700 16.910800 -8.086300 0.000000 0.000000 -14.666700 -9.219800 -26.503800 -0.386800 0.000000 0.000000 0.000000 0.000000 0.000000 0.000000 -3.637300 -1.655000 -36.834300 1.951200 0.000000 0.000000 -9.016800 -1.734700 -8.112500 4.059400 0.000000 0.000000 -0.994200 0.825200 29.550100 -1.283700 0.000000 0.000000 -8.136900 4.713200 7.978600 5.498000 0.000000 0.000000 
0.270220 -2.752855 0.891880 -3.288600 -0.481000 -179.093700 -2.969400 -0.056000 -0.182700 -1.525300 -0.402000 -0.003900 -1.254900 -0.725800 1.185700 0.349000 -0.186100 0.223000 6.314300 1.595700 3.736200 -2.146700 4.115200 3.798200 2.055800 20.357200 -2.863100 -25.952800 -18.117500 -11.614100 0.000000 0.000000 25.055700 -8.985100 23.847600 2.180500 0.000000 0.000000 0.000000 0.000000 0.000000 0.000000 5.138300 -12.470900 3.268300 -8.361600 17.042700 -8.166300 0.000000 0.000000 -14.592200 -9.427600 -26.475800 -0.437800 0.000000 0.000000 0.000000 0.000000 0.000000 0.000000 -3.616700 -1.644400 -36.850300 1.988000 0.000000 0.000000 -9.058700 -1.795200 -8.193800 4.111500 0.000000 0.000000 -0.981500 0.816000 29.509100 -1.265900 0.000000 0.000000 -8.132600 4.727000 7.934800 5.502800 0.000000 0.000000 
0.270104 -2.752710 0.891888 -3.281200 -0.491100 -178.965500 -2.972300 -0.076100 -0.181500 -1.528300 -0.409500 -0.006700 -1.244100 -0.727900 1.178500 0.362900 -0.183800 0.222400 6.408900 1.551900 3.742400 -2.127100 4.116300 3.836100 2.080900 20.420900 -2.919300 -25.897100 -18.166500 -11.644900 0.000000 0.000000 25.089300 -8.984900 23.786100 2.190900 0.000000 0.000000 0.000000 0.000000 0.000000 0.000000 5.189800 -12.494400 3.292500 -8.120400 17.170800 -8.356300 0.000000 0.000000 -14.469500 -9.516600 -26.338200 -0.455800 0.000000 0.000000 0.000000 0.000000 0.000000 0.000000 -3.601000 -1.633500 -36.880500 2.013900 0.000000 0.000000 -9.097200 -1.833400 -8.291700 4.158500 0.000000 0.000000 -0.989400 0.807400 29.480800 -1.235800 0.000000 0.000000 -8.131500 4.749400 7.851200 5.499100 0.000000 0.000000 
0.270015 -2.752542 0.891885 -3.280300 -0.492300 -178.836500 -2.982500 -0.093400 -0.181500 -1.537300 -0.413500 -0.009900 -1.230800 -0.715000 1.142100 0.374800 -0.174700 0.209800 6.490400 1.524400 3.718100 -2.097200 4.099200 3.826900 2.063000 20.375600 -2.949700 -25.852000 -18.105200 -11.618800 0.000000 0.000000 25.140200 -8.994300 23.756600 2.221500 0.000000 0.000000 0.000000 0.000000 0.000000 0.000000 5.242000 -12.503900 3.318000 -7.757600 17.214800 -8.565600 0.000000 0.000000 -14.336500 -9.413100 -26.168500 -0.432900 0.000000 0.000000 0.000000 0.000000 0.000000 0.000000 -3.579900 -1.624200 -36.925100 2.012300 0.000000 0.000000 -9.118500 -1.825500 -8.371300 4.159900 0.000000 0.000000 -0.998400 0.808600 29.467200 -1.216000 0.000000 0.000000 -8.130700 4.770600 7.752600 5.482600 0.000000 0.000000 
0.269936 -2.752359 0.891878 -3.284200 -0.484600 -178.736800 -2.994400 -0.103100 -0.185300 -1.547900 -0.418100 -0.009700 -1.216400 -0.705000 1.105300 0.384900 -0.162700 0.196700 6.546400 1.543900 3.666200 -2.073300 4.077200 3.743400 2.040500 20.313500 -2.973000 -25.815700 -18.040400 -11.590000 0.000000 0.000000 25.254700 -8.976100 23.767800 2.266200 0.000000 0.000000 0.000000 0.000000 0.000000 0.000000 5.261900 -12.472800 3.335100 -7.557000 17.221900 -8.664500 0.000000 0.000000 -14.248900 -9.305700 -26.073400 -0.432700 0.000000 0.000000 0.000000 0.000000 0.000000 0.000000 -3.563200 -1.609900 -36.956000 2.005900 0.000000 0.000000 -9.130000 -1.786500 -8.431000 4.112000 0.000000 0.000000 -0.999000 0.822700 29.465200 -1.216600 0.000000 0.000000 -8.114100 4.796300 7.666800 5.437100 0.000000 0.000000 
0.269867 -2.752153 0.891880 -3.287800 -0.473300 -178.678400 -3.001000 -0.108600 -0.188900 -1.555800 -0.422900 -0.008500 -1.204000 -0.705800 1.091000 0.393800 -0.152800 0.189900 6.576900 1.590800 3.606800 -2.049300 4.047100 3.629100 2.044000 20.299300 -3.011100 -25.753600 -18.043900 -11.570600 0.000000 0.000000 25.390800 -8.905900 23.777200 2.307500 0.000000 0.000000 0.000000 0.000000 0.000000 0.000000 5.260600 -12.438100 3.350900 -7.599600 17.270400 -8.629400 0.000000 0.000000 -14.233000 -9.336100 -26.066100 -0.479700 0.000000 0.000000 0.000000 0.000000 0.000000 0.000000 -3.559400 -1.586000 -36.939100 2.028600 0.000000 0.000000 -9.150300 -1.753100 -8.496400 4.072900 0.000000 0.000000 -0.991200 0.842000 29.459500 -1.225100 0.000000 0.000000 -8.083000 4.814600 7.625000 5.371200 0.000000 0.000000 
0.269845 -2.751938 0.891893 -3.290300 -0.464400 -178.651200 -3.003200 -0.112500 -0.191300 -1.559100 -0.425700 -0.008800 -1.195300 -0.707000 1.092200 0.401000 -0.148000 0.189400 6.588400 1.621600 3.555600 -2.019700 4.007800 3.536900 2.040700 20.282200 -3.040600 -25.671900 -18.048500 -11.540700 0.000000 0.000000 25.458700 -8.854800 23.772300 2.346300 0.000000 0.000000 0.000000 0.000000 0.000000 0.000000 5.255800 -12.428100 3.375000 -7.714900 17.330500 -8.552500 0.000000 0.000000 -14.249400 -9.407300 -26.095300 -0.514500 0.000000 0.000000 0.000000 0.000000 0.000000 0.000000 -3.562000 -1.563800 -36.910500 2.068200 0.000000 0.000000 -9.177400 -1.745000 -8.549600 4.085800 0.000000 0.000000 -0.986800 0.852200 29.442400 -1.218700 0.000000 0.000000 -8.068700 4.808000 7.626500 5.340100 0.000000 0.000000 
0.269880 -2.751757 0.891901 -3.293300 -0.453100 -178.646400 -3.002000 -0.109400 -0.189200 -1.557900 -0.424000 -0.008000 -1.192600 -0.705100 1.100200 0.404100 -0.148100 0.192400 6.593500 1.621800 3.517200 -2.005400 3.979300 3.475400 2.010800 20.221300 -3.039600 -25.647100 -17.993600 -11.519400 0.000000 0.000000 25.438300 -8.882300 23.777300 2.376700 0.000000 0.000000 0.000000 0.000000 0.000000 0.000000 5.237500 -12.426000 3.381400 -7.776000 17.330500 -8.480800 0.000000 0.000000 -14.251100 -9.386000 -26.126000 -0.486100 0.000000 0.000000 0.000000 0.000000 0.000000 0.000000 -3.562300 -1.547600 -36.917300 2.093700 0.000000 0.000000 -9.199900 -1.740400 -8.550000 4.109100 0.000000 0.000000 -0.987100 0.857300 29.431900 -1.200800 0.000000 0.000000 -8.083500 4.796600 7.639600 5.375600 0.000000 0.000000 
